<svg xmlns="http://www.w3.org/2000/svg" width="200" height="250.491" viewBox="0 0 52.916664 66.275746">
  <g>
    <g transform="matrix(1.7103208,0,0,1.7103063,-105.78215,1.1936844e-6)">
      <path style="fill:#FFFFFF" d="m 69.848624,12.636454 c -0.881141,-0.05777 -2.094407,1.166094 -2.104158,2.091998 -0.118043,0.792407 0.69982,2.070421 1.49994,2.077054 0.914068,0.04327 2.252077,-1.618262 2.245183,-2.570207 -0.02494,-0.70451 -0.887385,-1.584125 -1.640965,-1.598845 z m 15.647048,5.82535 c -0.894819,0.01144 -1.906676,1.30335 -1.922744,2.212666 0.02893,0.696154 0.556506,1.976996 1.325252,1.996619 0.857945,7.35e-4 2.267726,-1.246818 2.308647,-2.235116 -0.03704,-0.694423 -0.94722,-1.955643 -1.711155,-1.974169 z"></path>
      <path style="fill:#FFFFFF" d="m 79.093373,5.6207446 0.939024,-4.4344472 2.646661,2.810826 4.035267,-2.5145597 -0.135833,4.5112724 3.825121,-0.1876297 -2.953404,3.4716519 C 84.419206,6.8216734 82.324519,6.2756528 79.093373,5.6207446 Z"></path>
      <path style="fill:#7F7377" d="m 74.289361,38.750709 c -1.163293,-0.272726 -2.370018,-0.879243 -3.029886,-1.851949 -0.869799,-1.345347 -0.990568,-2.982591 -0.124434,-3.79782 0.83742,-0.803451 1.711722,-0.928454 2.773776,-0.851832 1.733244,0.227014 2.868363,1.879078 2.889614,3.501322 -0.0174,1.140906 -0.514665,2.122116 -1.499818,2.649155 -0.379186,0.196107 -0.833364,0.354093 -1.009252,0.351134 z m -5.632212,-2.702095 c -0.103901,0 -0.366123,-0.177117 -0.582614,-0.393617 -0.216492,-0.216492 -0.553623,-0.776581 -0.749199,-1.24464 -1.225798,-3.005984 -0.249344,-6.319882 2.783891,-7.669008 0.543601,-0.586596 5.68815,-1.143634 5.532238,-2.181505 -0.07993,-0.208258 -0.673581,-0.814299 -1.150723,-1.178245 -1.240527,-0.851442 -2.667354,-0.83167 -3.997351,-0.173925 -1.454331,0.474583 -3.507799,3.264846 -4.882475,3.186943 -0.2664,-0.0362 -0.89788,-0.658473 -1.403288,-1.382995 -1.402412,-2.013247 -2.01224,-4.649832 -2.012083,-6.679957 -0.03563,-2.354545 0.602767,-4.641058 1.820173,-6.539294 2.197658,-3.2501353 5.482489,-5.5780425 9.338593,-6.3889833 0.203,-0.041683 1.312757,-0.084111 2.466084,-0.094606 l 2.096995,-0.018888 0.305541,-1.6106975 c 0.168064,-0.8858771 0.49803,-2.0208757 0.733289,-2.5222078 0.306091,-0.65231238 0.606674,-0.93237057 1.057084,-0.98483729 0.463938,-0.0540577 0.943462,0.21916183 1.824388,1.03951839 l 1.19504,1.1128545 1.160111,-0.8334755 c 0.638086,-0.458393 1.506536,-1.01259188 1.929916,-1.2315397 0.569217,-0.29434955 0.893099,-0.33207832 1.243032,-0.14473706 0.260295,0.1393592 0.546448,0.48389591 0.635917,0.76575913 0.08951,0.28187253 0.08458,1.29039843 -0.01163,2.24119133 L 87.81647,4.8503978 88.777888,4.6879827 c 0.52877,-0.089413 1.263779,-0.047545 1.633363,0.093043 0.369575,0.1405128 0.740201,0.4332902 0.823595,0.6506375 0.08346,0.2173288 -0.01554,0.7449642 -0.219842,1.1725135 -0.204301,0.4275496 -0.883308,1.3460475 -1.508862,2.0411219 -1.013904,1.1265693 -1.094776,1.2991449 -0.74487,1.5895494 0.215886,0.179154 0.831893,0.972761 1.368898,1.76352 1.666968,2.488098 2.626425,5.354481 2.658692,8.307122 0.0028,0.882611 -0.199838,2.340672 -0.449266,3.240143 -1.062714,3.807945 -3.988736,6.369576 -7.677298,7.420565 -0.738582,0.205969 -2.450175,0.444372 -3.803553,0.529701 -2.989682,0.462748 -6.177256,-0.969922 -8.691937,-0.235713 -1.227473,0.465846 -2.706749,1.426901 -2.750265,2.864399 0,0.368821 -0.128463,0.952608 -0.285575,1.29734 -0.157066,0.344693 -0.370616,0.626717 -0.474564,0.626717 z M 84.938615,22.268772 c 0.857947,7.73e-4 1.744596,-0.965139 1.785516,-1.953429 -0.03704,-0.694423 -0.343671,-1.473003 -1.107607,-1.491528 -0.894817,0.01144 -1.665099,0.9412 -1.681168,1.850515 0.02893,0.696153 0.234514,1.574811 1.003259,1.594442 z M 69.285046,16.363117 c 0.91407,0.04327 1.728899,-1.095278 1.722005,-2.047225 -0.02493,-0.704519 -0.404456,-1.383023 -1.158036,-1.397751 -0.881142,-0.05777 -1.652325,0.924638 -1.662076,1.850533 -0.118043,0.792416 0.297988,1.587809 1.098107,1.594443 z M 87.291422,8.7303026 c 0.154124,0.0028 0.735454,-0.5191401 1.291858,-1.1593476 0.556414,-0.6402081 1.011653,-1.2560102 1.011653,-1.3684616 0,-0.1124698 -0.52597,-0.1329577 -1.168819,-0.045591 -0.642851,0.087367 -1.379321,0.2176268 -1.636583,0.2895115 -0.445618,0.1245373 -0.45951,0.01163 -0.293744,-2.3956979 L 86.669785,1.5242933 85.97926,1.9705721 C 85.599479,2.2160464 84.631715,2.9193461 83.828702,3.5334828 83.02566,4.1476106 82.329386,4.5322858 82.281384,4.3883024 82.233468,4.2442912 81.868583,3.6131833 81.470705,2.985797 81.072836,2.3584109 80.597779,1.8450949 80.415035,1.8450949 c -0.197465,0 -0.449238,0.5067471 -0.620595,1.2491247 -0.158582,0.6870079 -0.28832,1.5476705 -0.28832,1.9125928 0,0.6016972 0.125551,0.6926462 1.347852,0.9768449 0.741326,0.1723429 1.931685,0.5517518 2.645248,0.8431239 0.713543,0.2913725 1.795657,0.8378207 2.404676,1.2143269 0.60902,0.3765065 1.23342,0.6866732 1.387526,0.6892407 z M 65.234112,7.4234727 c -0.20301,0.025867 -1.06117,-0.2873803 -1.907029,-0.6959678 -0.84586,-0.4085686 -1.477777,-0.7853447 -1.477777,-0.9597994 0,-0.1744549 0.16368,-0.6735821 0.363759,-0.8396259 0.294638,-0.2445345 0.611857,-0.037309 1.926112,0.5776643 1.372443,0.6422452 1.610316,0.8449292 1.543279,1.3150454 -0.04364,0.3056733 -0.245335,0.5768917 -0.448344,0.6026834 z M 67.077109,5.4818692 C 66.710335,5.5334144 66.2295,5.0453693 65.160524,3.5364231 64.286723,2.3029947 63.641771,1.4026029 63.686832,1.0871047 c 0.04131,-0.28939963 0.435346,-0.63553669 0.667655,-0.63553669 0.236337,0 0.997156,0.93145869 1.855361,2.11985449 0.826053,1.1438656 1.469283,2.2511748 1.429387,2.4606974 -0.03983,0.209504 -0.292824,0.4118996 -0.562126,0.4497493 z M 69.42969,4.0596573 c -0.31065,0 -0.543973,-0.2063032 -0.626148,-0.5536498 -0.07211,-0.3045099 -0.157205,-1.1073092 -0.189249,-1.784008 -0.05508,-1.16307895 -0.04475,-1.3506249 0.535349,-1.3506249 0.561502,0 0.650842,0.24294351 0.835262,1.5634598 0.110878,0.7937277 0.142699,1.5965272 0.0708,1.7839894 -0.07192,0.1874622 -0.353626,0.3408335 -0.625962,0.3408335 z"></path>
    </g>
  </g>
</svg>
